<svg width="24" height="24" xmlns="http://www.w3.org/2000/svg" xml:space="preserve" style="enable-background:new 0 0 22 22" viewBox="0 0 22 22">
  <path fill="#faad14" d="M11 0C4.9 0 0 4.9 0 11s4.9 11 11 11 11-4.9 11-11S17.1 0 11 0zm-.1 17.5c-.5 0-.9-.4-.9-.9s.4-.9.9-.9.9.4.9.9c0 .4-.4.9-.9.9z"/>
  <path fill="#fff" d="M13 11.6c1.5-1.5 1.8-2.3 1.9-3.3.1-1-.3-1.9-1-2.6-.7-.8-1.8-1.2-2.9-1.2-1 0-2 .4-2.7 1.1-.8.7-1.2 1.7-1.2 2.7 0 .4.3.8.8.8.4 0 .8-.3.8-.8C8.7 7 9.7 6 11 6c.7 0 1.3.3 1.7.7.4.4.6.9.6 1.5 0 .5 0 .9-1.4 2.3-.9.9-1.7 1.7-1.8 2.8 0 .4.3.8.7.8h.1c.4 0 .7-.3.8-.7 0-.5.5-1 1.3-1.8z"/>
</svg>